<svg width="218" height="181" viewBox="0 0 218 181" fill="none" xmlns="http://www.w3.org/2000/svg">
<path d="M102.266 77.7188C102.266 73.7188 101.031 70.625 98.5625 68.4375C96.0938 66.25 92.8281 65.1562 88.7656 65.1562C85.3281 65.1562 82.375 66.3438 79.9062 68.7188C77.4375 71.0938 76.2031 73.9375 76.2031 77.25C76.2031 79.125 76.4531 80.8125 76.9531 82.3125C77.4531 83.7812 78.125 85.0156 78.9688 86.0156C79.8438 86.9844 80.875 87.7969 82.0625 88.4531C83.25 89.0781 84.4844 89.5312 85.7656 89.8125C87.0781 90.0938 88.4688 90.2344 89.9375 90.2344C93.5 90.2344 96.75 89.3594 99.6875 87.6094V90.9844C96.6562 92.5781 93.3906 93.375 89.8906 93.375C87.6406 93.375 85.5156 93.0781 83.5156 92.4844C81.5469 91.8594 79.75 90.9375 78.125 89.7188C76.5 88.4688 75.2031 86.7812 74.2344 84.6562C73.2969 82.5 72.8281 80.0312 72.8281 77.25C72.8281 72.9375 74.3438 69.2812 77.375 66.2812C80.4062 63.2812 84.2031 61.7812 88.7656 61.7812C93.7969 61.7812 97.8594 63.2031 100.953 66.0469C104.078 68.8594 105.641 72.75 105.641 77.7188V111H102.266V77.7188ZM112.391 77.7188V111H109.016V77.7188C109.016 71.8125 107.125 67.125 103.344 63.6562C99.5625 60.1562 94.7031 58.4062 88.7656 58.4062C83.2656 58.4062 78.6719 60.2344 74.9844 63.8906C71.2969 67.5469 69.4531 72 69.4531 77.25C69.4531 80.4375 70 83.2969 71.0938 85.8281C72.2188 88.3594 73.7344 90.3906 75.6406 91.9219C77.5469 93.4531 79.6719 94.625 82.0156 95.4375C84.3906 96.2188 86.8906 96.6094 89.5156 96.6094C93.0781 96.6094 96.4688 95.7812 99.6875 94.125V97.6875C96.3125 99.0938 92.9062 99.7969 89.4688 99.7969C86.375 99.7969 83.4375 99.3281 80.6562 98.3906C77.875 97.4219 75.3906 96.0312 73.2031 94.2188C71.0156 92.375 69.2812 90 68 87.0938C66.7188 84.1562 66.0781 80.875 66.0781 77.25C66.0781 71.0938 68.25 65.8594 72.5938 61.5469C76.9688 57.2031 82.3594 55.0312 88.7656 55.0312C93.2656 55.0312 97.2969 55.9531 100.859 57.7969C104.422 59.6094 107.234 62.25 109.297 65.7188C111.359 69.1875 112.391 73.1875 112.391 77.7188ZM119.141 77.7188V111H115.766V77.7188C115.766 72.5625 114.578 68 112.203 64.0312C109.859 60.0312 106.641 56.9688 102.547 54.8438C98.4531 52.7188 93.8594 51.6562 88.7656 51.6562C83.9219 51.6562 79.5 52.8125 75.5 55.125C71.5 57.4062 68.3594 60.5 66.0781 64.4062C63.8281 68.3125 62.7031 72.5938 62.7031 77.25C62.7031 81.25 63.4375 84.9062 64.9062 88.2188C66.375 91.5 68.3438 94.2031 70.8125 96.3281C73.3125 98.4531 76.1406 100.109 79.2969 101.297C82.4844 102.453 85.8125 103.031 89.2812 103.031C92.8125 103.031 96.2812 102.297 99.6875 100.828V104.25C96.125 105.594 92.625 106.266 89.1875 106.266C83.7812 106.266 78.8125 105.047 74.2812 102.609C69.75 100.172 66.125 96.7188 63.4062 92.25C60.6875 87.7812 59.3281 82.7812 59.3281 77.25C59.3281 73.3125 60.0781 69.5625 61.5781 66C63.1094 62.4375 65.1719 59.3594 67.7656 56.7656C70.3594 54.1719 73.4844 52.1094 77.1406 50.5781C80.7969 49.0469 84.6719 48.2812 88.7656 48.2812C94.4844 48.2812 99.6406 49.5 104.234 51.9375C108.859 54.375 112.5 57.8438 115.156 62.3438C117.812 66.8438 119.141 71.9688 119.141 77.7188ZM125.891 77.7188V111H122.516V77.7188C122.516 71.3438 121.031 65.6562 118.062 60.6562C115.094 55.625 111.047 51.75 105.922 49.0312C100.797 46.2812 95.0781 44.9062 88.7656 44.9062C82.7031 44.9062 77.1562 46.3594 72.125 49.2656C67.0938 52.1719 63.1406 56.1094 60.2656 61.0781C57.3906 66.0156 55.9531 71.4062 55.9531 77.25C55.9531 81.0938 56.5625 84.75 57.7812 88.2188C59.0312 91.6562 60.7188 94.6719 62.8438 97.2656C65 99.8281 67.4688 102.047 70.25 103.922C73.0625 105.797 76.0781 107.219 79.2969 108.188C82.5469 109.156 85.8438 109.641 89.1875 109.641C92.875 109.641 96.375 108.938 99.6875 107.531V111C96.2188 112.219 92.6562 112.828 89 112.828C85.2188 112.828 81.5312 112.297 77.9375 111.234C74.375 110.172 71.0625 108.609 68 106.547C64.9688 104.453 62.2969 102 59.9844 99.1875C57.6719 96.3438 55.8594 93.0312 54.5469 89.25C53.2344 85.4688 52.5781 81.4688 52.5781 77.25C52.5781 72.4062 53.4844 67.7969 55.2969 63.4219C57.1406 59.0156 59.6406 55.2188 62.7969 52.0312C65.9844 48.8125 69.8281 46.2656 74.3281 44.3906C78.8594 42.4844 83.6719 41.5312 88.7656 41.5312C93.9531 41.5312 98.8281 42.4062 103.391 44.1562C107.953 45.9062 111.891 48.3438 115.203 51.4688C118.516 54.5625 121.125 58.375 123.031 62.9062C124.938 67.4375 125.891 72.375 125.891 77.7188Z" fill="black"/>
<path d="M168.348 73.866C168.387 75.126 168.107 76.3045 167.506 77.3943C166.905 78.4841 166.083 79.3483 165.032 79.966C165.068 80.1552 165.092 80.4504 165.104 80.8516C165.164 82.7593 164.543 84.3994 163.258 85.7784C161.965 87.1646 160.378 87.8836 158.497 87.9423C157.657 87.9686 156.848 87.8459 156.079 87.574C155.525 88.7469 154.706 89.7026 153.615 90.4484C152.531 91.2009 151.325 91.5909 150.005 91.6322C148.656 91.6743 147.421 91.3676 146.307 90.6978C145.187 90.0352 144.317 89.1252 143.69 87.961C142.939 88.2804 142.148 88.4531 141.299 88.4796C139.419 88.5383 137.783 87.92 136.391 86.6176C135 85.3223 134.278 83.7171 134.219 81.8164C134.212 81.6052 134.232 81.3087 134.272 80.9269C133.184 80.369 132.31 79.5648 131.643 78.5146C130.982 77.4642 130.629 76.3055 130.589 75.0455C130.548 73.7079 130.863 72.465 131.529 71.3308C132.195 70.1967 133.113 69.3436 134.276 68.7717C133.941 67.9789 133.761 67.1742 133.736 66.3717C133.677 64.471 134.297 62.8239 135.605 61.4442C136.913 60.0646 138.507 59.3383 140.387 59.2796C141.228 59.2533 142.036 59.376 142.805 59.648C143.359 58.4751 144.178 57.5193 145.27 56.7736C146.354 56.028 147.559 55.631 148.879 55.5898C150.199 55.5485 151.427 55.8695 152.556 56.5389C153.684 57.2154 154.569 58.1179 155.195 59.2539C155.945 58.9345 156.737 58.7618 157.585 58.7353C159.466 58.6766 161.094 59.2951 162.471 60.598C163.848 61.9008 164.562 63.4992 164.621 65.3999C164.649 66.2868 164.534 67.0937 164.277 67.8275C165.473 68.3257 166.443 69.1198 167.178 70.2102C167.914 71.3076 168.306 72.5284 168.348 73.866ZM148.834 79.9083L156.281 68.5212C156.471 68.2193 156.52 67.8937 156.443 67.5508C156.358 67.2082 156.166 66.9394 155.85 66.766C155.534 66.5856 155.193 66.5329 154.833 66.5935C154.466 66.6613 154.177 66.8395 153.965 67.142L147.407 77.2118L144.149 74.2978C143.86 74.039 143.532 73.9224 143.171 73.9478C142.802 73.9734 142.489 74.11 142.217 74.3581C141.973 74.6053 141.857 74.9119 141.869 75.278C141.88 75.637 142.015 75.9358 142.273 76.1743L146.747 80.1849L146.965 80.3401C147.221 80.4942 147.482 80.5636 147.733 80.5558C148.226 80.5333 148.596 80.3244 148.834 79.9083Z" fill="#ED191D"/>
<path d="M13.4 168.5C11.2333 168.5 9.26667 167.967 7.5 166.9C5.73333 165.8 4.33333 164.317 3.3 162.45C2.3 160.583 1.8 158.483 1.8 156.15C1.8 153.817 2.3 151.717 3.3 149.85C4.33333 147.983 5.71667 146.5 7.45 145.4C9.21667 144.3 11.2 143.75 13.4 143.75C15.2 143.75 16.8 144.133 18.2 144.9C19.6333 145.633 20.7833 146.667 21.65 148C22.5167 149.3 23 150.817 23.1 152.55V159.7C23 161.4 22.5167 162.917 21.65 164.25C20.8167 165.583 19.6833 166.633 18.25 167.4C16.85 168.133 15.2333 168.5 13.4 168.5ZM14.15 164.25C16.3833 164.25 18.1833 163.5 19.55 162C20.9167 160.467 21.6 158.517 21.6 156.15C21.6 154.517 21.2833 153.1 20.65 151.9C20.05 150.667 19.1833 149.717 18.05 149.05C16.9167 148.35 15.6 148 14.1 148C12.6 148 11.2667 148.35 10.1 149.05C8.96667 149.75 8.06667 150.717 7.4 151.95C6.76667 153.15 6.45 154.533 6.45 156.1C6.45 157.7 6.76667 159.117 7.4 160.35C8.06667 161.55 8.98333 162.5 10.15 163.2C11.3167 163.9 12.65 164.25 14.15 164.25ZM21.3 168V161.6L22.15 155.8L21.3 150.05V144.25H25.85V168H21.3ZM32.4016 168V144.25H36.9016V168H32.4016ZM36.9016 154.45L35.2016 153.7C35.2016 150.667 35.9016 148.25 37.3016 146.45C38.7016 144.65 40.7182 143.75 43.3516 143.75C44.5516 143.75 45.6349 143.967 46.6016 144.4C47.5682 144.8 48.4682 145.483 49.3016 146.45L46.3516 149.5C45.8516 148.967 45.3016 148.583 44.7016 148.35C44.1016 148.117 43.4016 148 42.6016 148C40.9349 148 39.5682 148.533 38.5016 149.6C37.4349 150.667 36.9016 152.283 36.9016 154.45ZM64.4328 168.5C62.6328 168.5 60.9995 168.133 59.5328 167.4C58.0995 166.633 56.9495 165.583 56.0828 164.25C55.2161 162.917 54.7328 161.4 54.6328 159.7V152.55C54.7328 150.817 55.2161 149.3 56.0828 148C56.9828 146.667 58.1495 145.633 59.5828 144.9C61.0495 144.133 62.6661 143.75 64.4328 143.75C66.5995 143.75 68.5495 144.3 70.2828 145.4C72.0495 146.5 73.4328 147.983 74.4328 149.85C75.4328 151.717 75.9328 153.817 75.9328 156.15C75.9328 158.483 75.4328 160.583 74.4328 162.45C73.4328 164.317 72.0495 165.8 70.2828 166.9C68.5495 167.967 66.5995 168.5 64.4328 168.5ZM51.9328 168V132.3H56.4328V150.05L55.5828 155.8L56.4328 161.6V168H51.9328ZM63.6828 164.25C65.1828 164.25 66.4995 163.9 67.6328 163.2C68.7661 162.5 69.6661 161.55 70.3328 160.35C70.9995 159.117 71.3328 157.7 71.3328 156.1C71.3328 154.533 70.9995 153.133 70.3328 151.9C69.6661 150.667 68.7661 149.717 67.6328 149.05C66.4995 148.35 65.1995 148 63.7328 148C62.2328 148 60.9161 148.35 59.7828 149.05C58.6495 149.717 57.7661 150.667 57.1328 151.9C56.4995 153.133 56.1828 154.55 56.1828 156.15C56.1828 157.717 56.4828 159.117 57.0828 160.35C57.7161 161.55 58.5995 162.5 59.7328 163.2C60.8995 163.9 62.2161 164.25 63.6828 164.25ZM91.1344 168.5C88.9677 168.5 87.001 167.967 85.2344 166.9C83.4677 165.8 82.0677 164.317 81.0344 162.45C80.0344 160.583 79.5344 158.483 79.5344 156.15C79.5344 153.817 80.0344 151.717 81.0344 149.85C82.0677 147.983 83.451 146.5 85.1844 145.4C86.951 144.3 88.9344 143.75 91.1344 143.75C92.9344 143.75 94.5344 144.133 95.9344 144.9C97.3677 145.633 98.5177 146.667 99.3844 148C100.251 149.3 100.734 150.817 100.834 152.55V159.7C100.734 161.4 100.251 162.917 99.3844 164.25C98.551 165.583 97.4177 166.633 95.9844 167.4C94.5844 168.133 92.9677 168.5 91.1344 168.5ZM91.8844 164.25C94.1177 164.25 95.9177 163.5 97.2844 162C98.651 160.467 99.3344 158.517 99.3344 156.15C99.3344 154.517 99.0177 153.1 98.3844 151.9C97.7844 150.667 96.9177 149.717 95.7844 149.05C94.651 148.35 93.3344 148 91.8344 148C90.3344 148 89.001 148.35 87.8344 149.05C86.701 149.75 85.801 150.717 85.1344 151.95C84.501 153.15 84.1844 154.533 84.1844 156.1C84.1844 157.7 84.501 159.117 85.1344 160.35C85.801 161.55 86.7177 162.5 87.8844 163.2C89.051 163.9 90.3844 164.25 91.8844 164.25ZM99.0344 168V161.6L99.8844 155.8L99.0344 150.05V144.25H103.584V168H99.0344ZM126.936 168V154.15C126.936 152.35 126.369 150.867 125.236 149.7C124.103 148.533 122.636 147.95 120.836 147.95C119.636 147.95 118.569 148.217 117.636 148.75C116.703 149.283 115.969 150.017 115.436 150.95C114.903 151.883 114.636 152.95 114.636 154.15L112.786 153.1C112.786 151.3 113.186 149.7 113.986 148.3C114.786 146.9 115.903 145.8 117.336 145C118.769 144.167 120.386 143.75 122.186 143.75C123.986 143.75 125.569 144.2 126.936 145.1C128.336 146 129.436 147.183 130.236 148.65C131.036 150.083 131.436 151.617 131.436 153.25V168H126.936ZM110.136 168V144.25H114.636V168H110.136ZM147.629 168.5C145.462 168.5 143.495 167.967 141.729 166.9C139.962 165.8 138.562 164.317 137.529 162.45C136.529 160.583 136.029 158.483 136.029 156.15C136.029 153.817 136.529 151.717 137.529 149.85C138.562 147.983 139.945 146.5 141.679 145.4C143.445 144.3 145.429 143.75 147.629 143.75C149.429 143.75 151.029 144.133 152.429 144.9C153.862 145.633 155.012 146.667 155.879 148C156.745 149.3 157.229 150.817 157.329 152.55V159.7C157.229 161.4 156.745 162.917 155.879 164.25C155.045 165.583 153.912 166.633 152.479 167.4C151.079 168.133 149.462 168.5 147.629 168.5ZM148.379 164.25C150.612 164.25 152.412 163.5 153.779 162C155.145 160.467 155.829 158.517 155.829 156.15C155.829 154.517 155.512 153.1 154.879 151.9C154.279 150.667 153.412 149.717 152.279 149.05C151.145 148.35 149.829 148 148.329 148C146.829 148 145.495 148.35 144.329 149.05C143.195 149.75 142.295 150.717 141.629 151.95C140.995 153.15 140.679 154.533 140.679 156.1C140.679 157.7 140.995 159.117 141.629 160.35C142.295 161.55 143.212 162.5 144.379 163.2C145.545 163.9 146.879 164.25 148.379 164.25ZM155.529 168V161.6L156.379 155.8L155.529 150.05V144.25H160.079V168H155.529ZM170.58 168.5C169.647 168.5 168.863 168.183 168.23 167.55C167.63 166.883 167.33 166.1 167.33 165.2C167.33 164.267 167.63 163.5 168.23 162.9C168.863 162.267 169.647 161.95 170.58 161.95C171.513 161.95 172.28 162.267 172.88 162.9C173.513 163.5 173.83 164.267 173.83 165.2C173.83 166.1 173.513 166.883 172.88 167.55C172.28 168.183 171.513 168.5 170.58 168.5ZM181.182 168V144.25H185.682V168H181.182ZM183.432 139.5C182.599 139.5 181.915 139.233 181.382 138.7C180.849 138.133 180.582 137.433 180.582 136.6C180.582 135.8 180.849 135.133 181.382 134.6C181.915 134.033 182.599 133.75 183.432 133.75C184.265 133.75 184.949 134.033 185.482 134.6C186.015 135.133 186.282 135.8 186.282 136.6C186.282 137.433 186.015 138.133 185.482 138.7C184.949 139.233 184.265 139.5 183.432 139.5ZM203.164 168.5C200.83 168.5 198.73 167.95 196.864 166.85C194.997 165.75 193.514 164.267 192.414 162.4C191.314 160.5 190.764 158.383 190.764 156.05C190.764 153.75 191.314 151.683 192.414 149.85C193.514 147.983 194.997 146.5 196.864 145.4C198.73 144.3 200.83 143.75 203.164 143.75C205.464 143.75 207.547 144.3 209.414 145.4C211.314 146.467 212.814 147.933 213.914 149.8C215.014 151.667 215.564 153.75 215.564 156.05C215.564 158.383 215.014 160.5 213.914 162.4C212.814 164.267 211.314 165.75 209.414 166.85C207.547 167.95 205.464 168.5 203.164 168.5ZM203.164 164.15C204.664 164.15 205.997 163.8 207.164 163.1C208.33 162.4 209.247 161.45 209.914 160.25C210.58 159.017 210.914 157.617 210.914 156.05C210.914 154.517 210.564 153.15 209.864 151.95C209.197 150.75 208.28 149.817 207.114 149.15C205.98 148.45 204.664 148.1 203.164 148.1C201.664 148.1 200.33 148.45 199.164 149.15C197.997 149.817 197.08 150.75 196.414 151.95C195.747 153.15 195.414 154.517 195.414 156.05C195.414 157.617 195.747 159.017 196.414 160.25C197.08 161.45 197.997 162.4 199.164 163.1C200.33 163.8 201.664 164.15 203.164 164.15Z" fill="black" fill-opacity="0.81"/>
</svg>
